<svg xmlns="http://www.w3.org/2000/svg" width="52.514" height="43.505" viewBox="0 0 52.514 43.505">
  <g id="logo-icon" transform="translate(-289.153 -630.372)">
    <path id="Path_1" data-name="Path 1" d="M301.5,749s10.833-9.333-4.167-18S281,728,281,728s-4.667,6,3,17.667S301.5,749,301.5,749Z" transform="matrix(0.999, -0.035, 0.035, 0.999, -15.614, -69.344)" fill="#5f76e8"/>
    <path id="Path_4" data-name="Path 4" d="M315.833,740.75c-.667-6.5.583-6.167,1.25-6.917,2.917-2.25,2.155-2.283,8.417-2.333,10.333-.083,11.333,1.5,12.083,4.417s-4.833,6.917-8.417,8.5S316.5,747.25,315.833,740.75Z" transform="matrix(1, -0.017, 0.017, 1, -16.84, -66.187)" fill="rgba(255,79,112,0.91)"/>
    <path id="Path_3" data-name="Path 3" d="M302.6,756.852s11.378-12.545-4.376-24.194-17.154-4.033-17.154-4.033-4.9,8.065,3.151,23.746S302.6,756.852,302.6,756.852Z" transform="matrix(0.545, 0.839, -0.839, 0.545, 783.72, 0.379)" fill="rgba(1,202,241,0.8)"/>
  </g>
</svg>
